<svg xmlns="http://www.w3.org/2000/svg" aria-hidden="true" style="position:absolute;width:0;height:0;overflow:hidden"><defs><symbol id="icon-facebook" viewBox="0 0 19 32"><path d="m16.542 18.4.817-5.367h-5.193V9.536c0-1.517.7-2.916 3.034-2.916h2.391V2.01s-2.159-.41-4.201-.41c-4.258 0-7.055 2.624-7.055 7.292v4.141H1.55V18.4h4.783v13.067h5.833V18.4h4.373z"/></symbol><symbol id="icon-linkedin" viewBox="0 0 32 32"><path d="M7.655 32V11.874H1.39V32h6.265zM4.487 9.182c2.018 0 3.636-1.681 3.636-3.7 0-1.952-1.615-3.569-3.636-3.569C2.535 1.913.92 3.53.92 5.482c0 2.018 1.615 3.7 3.569 3.7zM31.01 32h.066V20.962c0-5.386-1.211-9.558-7.54-9.558-3.028 0-5.046 1.681-5.922 3.23h-.064v-2.757h-5.994V32h6.26v-9.962c0-2.624.473-5.115 3.702-5.115 3.232 0 3.298 2.961 3.298 5.317V32h6.193z"/></symbol><symbol id="icon-logo" viewBox="0 0 109 32"><path fill="#f5f8fc" d="M32.018 25.6V6.981h7.345c1.412 0 2.615.27 3.609.809.995.534 1.752 1.276 2.273 2.227.528.945.791 2.037.791 3.273s-.266 2.327-.8 3.273c-.533.945-1.306 1.681-2.318 2.209-1.006.527-2.224.791-3.654.791h-4.682v-3.154h4.046c.757 0 1.381-.131 1.872-.391a2.607 2.607 0 0 0 1.102-1.086l.007-.014c.249-.473.373-1.015.373-1.627 0-.618-.124-1.158-.373-1.618a2.504 2.504 0 0 0-1.095-1.075l-.014-.007c-.497-.261-1.127-.391-1.891-.391h-2.655v15.4h-3.936zm20.109.263c-.891 0-1.685-.154-2.382-.464a3.857 3.857 0 0 1-1.646-1.377l-.009-.014c-.4-.618-.6-1.388-.6-2.309 0-.775.143-1.426.428-1.954a3.492 3.492 0 0 1 1.15-1.266l.013-.008a5.532 5.532 0 0 1 1.634-.718l.039-.009a12.77 12.77 0 0 1 1.981-.346 47.393 47.393 0 0 0 2.233-.268l-.269.032c.497-.079.858-.194 1.082-.346s.336-.376.336-.673v-.055c0-.576-.182-1.02-.545-1.336-.358-.315-.867-.473-1.527-.473-.698 0-1.253.155-1.664.464a2.126 2.126 0 0 0-.818 1.146l-3.582-.292a4.873 4.873 0 0 1 1.072-2.2c.534-.624 1.221-1.103 2.064-1.435.848-.34 1.83-.51 2.945-.51.776 0 1.518.091 2.227.273.722.179 1.357.47 1.92.858l-.02-.013c.558.382.997.873 1.318 1.473.321.594.482 1.306.482 2.137v9.418h-3.673v-1.936h-.11a3.98 3.98 0 0 1-.895 1.151l-.004.004a4.166 4.166 0 0 1-1.354.773c-.528.182-1.136.272-1.828.272zm1.109-2.672c.57 0 1.073-.112 1.509-.336.437-.23.78-.539 1.028-.927s.373-.827.373-1.318v-1.481c-.144.088-.31.162-.485.214l-.015.004a7.462 7.462 0 0 1-.64.162l-.059.011a42.66 42.66 0 0 1-.782.137l-.709.099c-.444.06-.846.172-1.223.33l.032-.012a1.917 1.917 0 0 0-.791.592c-.187.242-.282.545-.282.909 0 .528.191.931.573 1.21.388.272.878.409 1.472.409zm16.05 7.936c-1.254 0-2.331-.173-3.227-.517-.891-.339-1.6-.804-2.128-1.392a4.26 4.26 0 0 1-1.021-1.953l-.005-.029 3.581-.482c.11.279.282.539.518.782s.549.436.936.581c.394.152.873.228 1.436.228.843 0 1.536-.207 2.082-.618.552-.406.827-1.088.827-2.046v-2.554h-.164a3.717 3.717 0 0 1-.763 1.1c-.339.345-.776.627-1.309.845s-1.17.327-1.909.327c-1.049 0-2.002-.242-2.864-.727-.855-.491-1.536-1.24-2.045-2.245-.503-1.012-.754-2.291-.754-3.836 0-1.582.257-2.903.773-3.963s1.2-1.855 2.054-2.383a5.251 5.251 0 0 1 2.788-.791h.041-.002c.782 0 1.436.133 1.964.4.528.261.951.588 1.273.982.327.388.579.77.754 1.146h.146v-2.346h3.845v14.101c0 1.189-.291 2.181-.872 2.982s-1.388 1.401-2.418 1.801c-1.024.405-2.203.608-3.536.608zm.083-8.636c.624 0 1.151-.154 1.582-.464.436-.314.769-.763.999-1.345.237-.588.355-1.291.355-2.109s-.115-1.527-.346-2.128c-.23-.606-.563-1.075-.999-1.409s-.967-.5-1.591-.5c-.637 0-1.173.174-1.609.518-.437.339-.767.812-.991 1.418s-.336 1.306-.336 2.1c0 .805.112 1.503.336 2.091.23.581.56 1.033.991 1.354.436.315.972.473 1.609.473zm16.19 3.382c-1.435 0-2.672-.292-3.709-.873a6.023 6.023 0 0 1-2.366-2.458l-.016-.033c-.558-1.079-.836-2.354-.836-3.827 0-1.435.278-2.697.836-3.781s1.343-1.93 2.355-2.536c1.018-.606 2.213-.91 3.581-.91.922 0 1.779.149 2.573.446a5.731 5.731 0 0 1 2.091 1.318c.6.588 1.067 1.328 1.4 2.219.334.884.5 1.92.5 3.109v1.063H80.177v-2.4h8.145c0-.558-.122-1.051-.364-1.481a2.63 2.63 0 0 0-.996-1.003l-.013-.007c-.425-.249-.919-.373-1.482-.373-.588 0-1.109.137-1.563.41-.448.266-.8.627-1.055 1.082-.246.43-.39.946-.39 1.495v2.287c0 .691.127 1.288.381 1.792.261.503.627.89 1.1 1.163s1.033.409 1.682.409c.43 0 .824-.06 1.181-.181.358-.119.665-.306.92-.547l-.001.001a2.38 2.38 0 0 0 .582-.891l3.582.237a4.888 4.888 0 0 1-1.123 2.26l.005-.005c-.558.636-1.279 1.134-2.164 1.49-.879.352-1.894.528-3.045.528zm20.555-10.255-3.546.219a1.824 1.824 0 0 0-.394-.821l.002.003a2.071 2.071 0 0 0-.777-.585l-.013-.005c-.321-.152-.706-.228-1.154-.228-.601 0-1.106.128-1.519.382-.412.249-.618.582-.618 1 0 .333.133.614.4.845s.725.415 1.373.555l2.527.509c1.358.279 2.37.727 3.036 1.345s1 1.431 1 2.437c0 .915-.27 1.719-.809 2.409-.533.691-1.267 1.231-2.2 1.618-.928.382-1.998.572-3.209.572-1.849 0-3.322-.384-4.419-1.154-1.091-.776-1.73-1.83-1.918-3.163l3.809-.201c.115.564.394.995.837 1.291.442.292 1.009.437 1.701.437.678 0 1.224-.131 1.636-.391.419-.267.631-.609.636-1.027a1.065 1.065 0 0 0-.445-.864c-.291-.23-.74-.406-1.345-.528l-2.418-.482c-1.364-.272-2.379-.745-3.046-1.417-.661-.674-.991-1.531-.991-2.574 0-.896.242-1.669.727-2.318.491-.649 1.179-1.148 2.064-1.499.891-.352 1.934-.528 3.128-.528 1.764 0 3.152.373 4.164 1.118 1.019.746 1.612 1.761 1.782 3.046z" style="fill:var(--color1, #f5f8fc)"/><path fill="#ffca42" d="M3.258 23.223H22.4V2.743H3.205C1.437 2.749.005 4.194 0 5.98v18.88c0 1.889 1.467 3.483 3.205 3.483H22.4v-1.707H3.205c-.793 0-1.515-.846-1.515-1.776 0-.887.718-1.637 1.567-1.637zM5.072 4.467h5.072v9.217l-2.556-2.267-2.514 2.254V4.467zM1.691 5.992V5.98c0-.84.676-1.522 1.514-1.53h.175v11.52h1.671l2.541-2.276 2.566 2.276h1.674V4.45h8.876v17.066H3.256c-.55 0-1.09.145-1.566.421V5.992z" style="fill:var(--color2, #ffca42)"/></symbol><symbol id="icon-twit" viewBox="0 0 37 32"><path d="M33.467 7.749a16.372 16.372 0 0 0 3.759-3.881l.036-.055a13.995 13.995 0 0 1-4.314 1.16l-.062.005a7.517 7.517 0 0 0 3.34-4.176l.015-.053a15.867 15.867 0 0 1-4.706 1.876l-.108.02A7.635 7.635 0 0 0 25.855.24h-.044.002-.003a7.653 7.653 0 0 0-7.653 7.653c0 .587.072 1.168.219 1.752A22.203 22.203 0 0 1 2.581 1.663l-.029-.036C1.896 2.72 1.531 4.035 1.531 5.494a7.527 7.527 0 0 0 3.427 6.341c-1.237-.072-2.48-.363-3.499-.947v.072c0 3.72 2.624 6.781 6.125 7.512-.584.144-1.312.293-1.971.293-.507 0-.947-.075-1.456-.149.992 3.076 3.806 5.272 7.14 5.325h.006a15.29 15.29 0 0 1-9.479 3.28h-.001c-.659 0-1.24-.072-1.824-.147 3.355 2.187 7.365 3.429 11.739 3.429 14.075 0 21.731-11.595 21.731-21.731V7.751z"/></symbol><symbol id="icon-rate" viewBox="0 0 192 32"><path fill="none" stroke="#ffca42" stroke-width="1.6" d="M176 31.2c8.395 0 15.2-6.805 15.2-15.2S184.395.8 176 .8 160.8 7.605 160.8 16s6.805 15.2 15.2 15.2z" style="stroke:var(--color1, #ffca42)"/><path fill="#ffca42" d="M176 32c-8.836-.002-15.999-7.166-15.999-16.003 0-2.208.447-4.312 1.256-6.225l-.039.105C163.687 4.03 169.373 0 176 0v32zm-40 0c8.837 0 16-7.163 16-16s-7.163-16-16-16-16 7.163-16 16 7.163 16 16 16zm-40 0c8.837 0 16-7.163 16-16S104.837 0 96 0 80 7.163 80 16s7.163 16 16 16zm-40 0c8.837 0 16-7.163 16-16S64.837 0 56 0 40 7.163 40 16s7.163 16 16 16zm-40 0c8.837 0 16-7.163 16-16S24.837 0 16 0 0 7.163 0 16s7.163 16 16 16z" style="fill:var(--color1, #ffca42)"/></symbol><symbol id="icon-insta" viewBox="0 0 30 32"><path fill="#fff" d="M15.111 8.19a7.588 7.588 0 0 0-7.588 7.588v.041a7.547 7.547 0 0 0 7.547 7.547h.043-.002a7.588 7.588 0 0 0 7.588-7.588c0-4.156-3.431-7.588-7.588-7.588zm0 12.535h-.005a4.943 4.943 0 0 1-4.942-4.942v-.006c0-2.704 2.176-4.882 4.948-4.882h.011a4.871 4.871 0 0 1 4.871 4.871v.011-.001c0 2.772-2.178 4.948-4.882 4.948zm9.632-12.798V7.92c0-.98-.794-1.774-1.774-1.774h-.015c-.98 0-1.774.794-1.774 1.774v.015c0 .98.794 1.774 1.774 1.774h.015c.98 0 1.774-.794 1.774-1.774v-.008zm5.013 1.781c-.132-2.375-.658-4.487-2.375-6.201-1.714-1.716-3.826-2.245-6.201-2.375-2.441-.133-9.764-.133-12.203 0-2.375.132-4.421.658-6.201 2.375C1.059 5.221.531 7.333.399 9.706c-.133 2.441-.133 9.764 0 12.204.132 2.375.658 4.42 2.375 6.203 1.781 1.714 3.826 2.242 6.201 2.373 2.441.133 9.764.133 12.204 0 2.375-.132 4.487-.658 6.201-2.373 1.716-1.781 2.244-3.828 2.375-6.203.133-2.441.133-9.764 0-12.204zM26.59 24.485c-.462 1.321-1.518 2.311-2.772 2.837-1.979.793-6.596.594-8.708.594-2.178 0-6.795.199-8.708-.594a5.027 5.027 0 0 1-2.825-2.804l-.012-.034c-.791-1.913-.594-6.53-.594-8.708 0-2.112-.197-6.729.594-8.708a5.115 5.115 0 0 1 2.803-2.759l.034-.012c1.913-.791 6.53-.594 8.708-.594 2.112 0 6.729-.197 8.708.594 1.255.462 2.244 1.516 2.772 2.772.791 1.979.594 6.596.594 8.708 0 2.178.197 6.795-.594 8.708z" style="fill:var(--color1, #fff)"/></symbol><symbol id="icon-phone" viewBox="0 0 32 32"><path d="M22 20c-2 2-2 4-4 4s-4-2-6-4-4-4-4-6 2-2 4-4-4-8-6-8-6 6-6 6c0 4 4.109 12.109 8 16s12 8 16 8c0 0 6-4 6-6s-6-8-8-6z"/></symbol><symbol id="icon-envelop" viewBox="0 0 32 32"><path d="M29 4H3C1.35 4 0 5.35 0 7v20c0 1.65 1.35 3 3 3h26c1.65 0 3-1.35 3-3V7c0-1.65-1.35-3-3-3zM12.461 17.199 4 23.789V8.113l8.461 9.086zM5.512 8h20.976L16 15.875 5.512 8zm7.278 9.553L16 21l3.21-3.447L25.79 26H6.211l6.58-8.447zm6.749-.354L28 8.113v15.676l-8.461-6.59z"/></symbol><symbol id="icon-user" viewBox="0 0 32 32"><path d="M18 22.082v-1.649c2.203-1.241 4-4.337 4-7.432 0-4.971 0-9-6-9s-6 4.029-6 9c0 3.096 1.797 6.191 4 7.432v1.649C7.216 22.637 2 25.97 2 30h28c0-4.03-5.216-7.364-12-7.918z"/></symbol><symbol id="icon-cross" viewBox="0 0 32 32"><path d="M31.708 25.708 22 16l9.708-9.708a1 1 0 0 0 0-1.414L27.122.292a1 1 0 0 0-1.414-.001L16 9.999 6.292.291a.998.998 0 0 0-1.414.001L.292 4.878a1 1 0 0 0 0 1.414L10 16 .292 25.708a.999.999 0 0 0 0 1.414l4.586 4.586a1 1 0 0 0 1.414 0L16 22l9.708 9.708a1 1 0 0 0 1.414 0l4.586-4.586a.999.999 0 0 0 0-1.414z"/></symbol><symbol id="icon-phone" viewBox="0 0 32 32"><path d="M22 20c-2 2-2 4-4 4s-4-2-6-4-4-4-4-6 2-2 4-4-4-8-6-8-6 6-6 6c0 4 4.109 12.109 8 16s12 8 16 8c0 0 6-4 6-6s-6-8-8-6z"/></symbol></defs></svg>